<svg width="716" height="716" viewBox="0 0 716 716" fill="none" xmlns="http://www.w3.org/2000/svg">
<path d="M507.167 89.5H626.5C634.412 89.5 642.001 92.6432 647.595 98.238C653.19 103.833 656.333 111.421 656.333 119.333V596.667C656.333 604.579 653.19 612.167 647.595 617.762C642.001 623.357 634.412 626.5 626.5 626.5H89.5C81.5877 626.5 73.9995 623.357 68.4046 617.762C62.8098 612.167 59.6667 604.579 59.6667 596.667V119.333C59.6667 111.421 62.8098 103.833 68.4046 98.238C73.9995 92.6432 81.5877 89.5 89.5 89.5H208.833V59.6667C208.833 43.1902 222.19 29.8333 238.667 29.8333C255.143 29.8333 268.5 43.1902 268.5 59.6667V89.5H447.5V59.6667C447.5 43.1902 460.857 29.8333 477.333 29.8333C493.81 29.8333 507.167 43.1902 507.167 59.6667V89.5ZM131.721 268.5C124.879 268.5 119.333 274.046 119.333 280.888V554.446C119.333 561.287 124.879 566.833 131.721 566.833H584.279C591.121 566.833 596.667 561.287 596.667 554.446V280.888C596.667 274.046 591.121 268.5 584.279 268.5H131.721Z" fill="#5A9CF8"/>
<path d="M179 400.221C179 393.379 184.546 387.833 191.388 387.833H315.779C322.621 387.833 328.167 393.379 328.167 400.221V494.779C328.167 501.621 322.621 507.167 315.779 507.167H191.388C184.546 507.167 179 501.621 179 494.779V400.221Z" fill="#B2C8FF"/>
</svg>
