<svg width="4350" height="578" viewBox="0 0 4350 578" fill="none" xmlns="http://www.w3.org/2000/svg">
<g clip-path="url(#clip0_202_314)">
<g clip-path="url(#clip1_202_314)">
<path d="M409.417 72.25H505.75C512.137 72.25 518.263 74.7873 522.779 79.3038C527.296 83.8203 529.833 89.946 529.833 96.3333V481.667C529.833 488.054 527.296 494.18 522.779 498.696C518.263 503.213 512.137 505.75 505.75 505.75H72.2498C65.8625 505.75 59.7368 503.213 55.2203 498.696C50.7038 494.18 48.1665 488.054 48.1665 481.667V96.3333C48.1665 89.946 50.7038 83.8203 55.2203 79.3038C59.7368 74.7873 65.8625 72.25 72.2498 72.25H168.583V48.1667C168.583 34.8658 179.366 24.0833 192.667 24.0833V24.0833C205.967 24.0833 216.75 34.8658 216.75 48.1666V72.25H361.25V48.1667C361.25 34.8658 372.032 24.0833 385.333 24.0833V24.0833C398.634 24.0833 409.417 34.8658 409.417 48.1666V72.25ZM106.333 216.75C100.81 216.75 96.3332 221.227 96.3332 226.75V447.583C96.3332 453.106 100.81 457.583 106.333 457.583H471.667C477.189 457.583 481.667 453.106 481.667 447.583V226.75C481.667 221.227 477.189 216.75 471.667 216.75H106.333Z" fill="#5A9CF8"/>
</g>
<path d="M144.5 323.083C144.5 317.561 148.977 313.083 154.5 313.083H254.917C260.44 313.083 264.917 317.561 264.917 323.083V399.417C264.917 404.94 260.44 409.417 254.917 409.417H154.5C148.977 409.417 144.5 404.94 144.5 399.417V323.083Z" fill="#AECCF5"/>
</g>
<path d="M1167.73 181.2H1103.82V308.635C1103.82 359.07 1079.18 389.1 1039.91 389.1C999.87 389.1 978.31 359.07 978.31 308.635V181.2H915.17V308.635C915.17 395.26 965.605 447.62 1039.91 447.62C1113.06 447.62 1167.73 395.26 1167.73 308.635V181.2ZM1345.42 176.58C1285.75 176.58 1238.78 212 1238.78 259.74C1238.78 317.875 1307.69 332.505 1346.96 341.745C1371.22 347.52 1393.16 353.295 1393.16 369.85C1393.16 381.015 1382.77 392.95 1354.66 392.95C1302.69 392.95 1297.68 351.37 1297.68 351.37H1234.93C1234.93 392.18 1269.19 447.62 1351.2 447.62C1412.41 447.62 1456.3 416.435 1456.3 366.385C1456.3 308.635 1398.17 294.775 1356.97 283.995C1320.01 274.37 1302.69 269.365 1302.69 256.66C1302.69 241.645 1325.79 233.175 1344.65 233.175C1371.6 233.175 1387 250.885 1387 263.975H1449.76C1449.76 223.165 1413.57 176.58 1345.42 176.58ZM1604.17 181.2H1541.03V443H1604.17V181.2ZM2029.1 348.675C2016.39 371.775 1992.52 388.33 1960.18 388.33C1914.37 388.33 1882.41 351.755 1882.41 310.175C1882.41 267.055 1914.37 233.56 1960.18 233.56C1993.29 233.56 2017.55 249.345 2029.87 273.215L2083.38 242.03C2059.9 202.76 2016.01 176.58 1960.18 176.58C1878.18 176.58 1818.5 237.41 1818.5 310.175C1818.5 387.56 1878.18 447.62 1960.18 447.62C2015.62 447.62 2059.13 418.745 2082.61 379.475L2029.1 348.675ZM2360.06 443H2427.44L2315.02 181.2H2244.56L2132.53 443H2199.52L2216.84 402.19H2343.12L2360.06 443ZM2238.79 350.6L2280.37 252.81L2321.18 350.6H2238.79ZM2571.78 181.2H2508.64V443H2709.22V384.48H2571.78V181.2ZM2792.65 181.2V443H2993.24V384.48H2855.79V339.435H2970.52V284.765H2855.79V239.72H2993.24V181.2H2792.65ZM3338.7 181.2H3275.17V340.975L3142.73 181.2H3079.21V443H3142.73V282.84L3275.17 443H3338.7V181.2ZM3548 181.2L3432.11 181.585V443H3548C3629.62 443 3686.21 387.945 3686.21 311.715C3686.21 236.255 3634.24 180.815 3548 181.2ZM3495.25 239.72H3548C3592.66 239.72 3622.3 264.745 3622.3 311.715C3622.3 355.605 3591.89 384.48 3548 384.48H3495.25V239.72ZM3958.34 443H4025.71L3913.29 181.2H3842.84L3730.8 443H3797.79L3815.12 402.19H3941.4L3958.34 443ZM3837.06 350.6L3878.64 252.81L3919.45 350.6H3837.06ZM4233.58 181.2H4106.92V443H4170.06V377.935H4216.26L4255.53 443H4334.07L4280.17 364.075C4308.27 349.06 4326.75 317.105 4326.75 279.375C4326.75 222.395 4286.71 181.2 4233.58 181.2ZM4224.73 239.72C4245.9 239.72 4263.23 257.815 4263.23 279.375C4263.23 301.32 4245.9 319.415 4224.34 319.415H4170.06V239.72H4224.73Z" fill="black"/>
<defs>
<clipPath id="clip0_202_314">
<rect width="578" height="578" fill="white"/>
</clipPath>
<clipPath id="clip1_202_314">
<rect width="578" height="578" fill="white"/>
</clipPath>
</defs>
</svg>
